<?xml version="1.0" encoding="UTF-8"?>
<svg width="87px" height="50px" viewBox="0 0 87 50" version="1.1" xmlns="http://www.w3.org/2000/svg" xmlns:xlink="http://www.w3.org/1999/xlink">
    <!-- Generator: Sketch 52.5 (67469) - http://www.bohemiancoding.com/sketch -->
    <title>mastercard</title>
    <desc>Created with Sketch.</desc>
    <g id="mastercard" stroke="none" stroke-width="1" fill="none" fill-rule="evenodd">
        <g id="mastercard-seeklogo.com" transform="translate(15.000000, 3.000000)">
            <path d="M10.5239511,44.7764273 L10.5239511,41.7979506 C10.5239511,40.6562013 9.82897322,39.911582 8.63758257,39.911582 C8.04188725,39.911582 7.39655064,40.1101471 6.94977915,40.7554838 C6.60229021,40.2094298 6.10587744,39.911582 5.3612583,39.911582 C4.86484553,39.911582 4.36843275,40.060506 3.97130255,40.6065602 L3.97130255,40.0108647 L2.92883574,40.0108647 L2.92883574,44.7764273 L3.97130255,44.7764273 L3.97130255,42.1454397 C3.97130255,41.301538 4.41807404,40.9044078 5.11305191,40.9044078 C5.80802979,40.9044078 6.15551873,41.3511791 6.15551873,42.1454397 L6.15551873,44.7764273 L7.19798554,44.7764273 L7.19798554,42.1454397 C7.19798554,41.301538 7.69439831,40.9044078 8.3397349,40.9044078 C9.03471277,40.9044078 9.38220173,41.3511791 9.38220173,42.1454397 L9.38220173,44.7764273 L10.5239511,44.7764273 Z M25.9623882,40.0108647 L24.2745847,40.0108647 L24.2745847,38.5712677 L23.2321181,38.5712677 L23.2321181,40.0108647 L22.2889337,40.0108647 L22.2889337,40.9540489 L23.2321181,40.9540489 L23.2321181,43.1382652 C23.2321181,44.2303734 23.6788894,44.87571 24.8702803,44.87571 C25.3170516,44.87571 25.8134644,44.726786 26.1609533,44.5282209 L25.8631058,43.6346781 C25.565258,43.8332429 25.2177691,43.8828843 24.9695627,43.8828843 C24.4731501,43.8828843 24.2745847,43.5850367 24.2745847,43.0886239 L24.2745847,40.9540489 L25.9623882,40.9540489 L25.9623882,40.0108647 Z M34.7985355,39.911582 C34.2028402,39.911582 33.80571,40.2094298 33.5575036,40.6065602 L33.5575036,40.0108647 L32.5150367,40.0108647 L32.5150367,44.7764273 L33.5575036,44.7764273 L33.5575036,42.0957984 C33.5575036,41.301538 33.9049924,40.8547664 34.5503291,40.8547664 C34.7488942,40.8547664 34.9971006,40.9044078 35.1956657,40.9540489 L35.4935135,39.9612234 C35.2949484,39.911582 34.9971006,39.911582 34.7985355,39.911582 Z M21.445032,40.4079949 C20.9486192,40.060506 20.2536414,39.911582 19.5090222,39.911582 C18.3176316,39.911582 17.5233711,40.5072776 17.5233711,41.4504617 C17.5233711,42.2447224 18.1190665,42.6914937 19.1615332,42.8404177 L19.6579461,42.8900588 C20.2040001,42.9893412 20.5018477,43.1382652 20.5018477,43.3864716 C20.5018477,43.7339605 20.1047175,43.9821669 19.4097396,43.9821669 C18.7147618,43.9821669 18.1687077,43.7339605 17.8212187,43.4857541 L17.324806,44.2800147 C17.8708601,44.6771447 18.6154792,44.87571 19.3600983,44.87571 C20.7500541,44.87571 21.5443145,44.2303734 21.5443145,43.3368303 C21.5443145,42.4929286 20.8989779,42.0461573 19.9061524,41.8972333 L19.4097396,41.8475919 C18.9629681,41.7979506 18.6154792,41.6986682 18.6154792,41.4008206 C18.6154792,41.0533315 18.9629681,40.8547664 19.5090222,40.8547664 C20.1047175,40.8547664 20.7004128,41.1029729 20.9982605,41.2518966 L21.445032,40.4079949 Z M49.1448645,39.911582 C48.5491692,39.911582 48.152039,40.2094298 47.9038326,40.6065602 L47.9038326,40.0108647 L46.8613658,40.0108647 L46.8613658,44.7764273 L47.9038326,44.7764273 L47.9038326,42.0957984 C47.9038326,41.301538 48.2513215,40.8547664 48.8966581,40.8547664 C49.0952232,40.8547664 49.3434296,40.9044078 49.5419947,40.9540489 L49.8398425,39.9612234 C49.6412774,39.911582 49.3434296,39.911582 49.1448645,39.911582 Z M35.8410023,42.3936459 C35.8410023,43.8332429 36.8338278,44.87571 38.3727075,44.87571 C39.0676853,44.87571 39.5640981,44.726786 40.0605108,44.3296558 L39.5640981,43.4857541 C39.1669679,43.7836018 38.7698377,43.9325256 38.3230662,43.9325256 C37.4791645,43.9325256 36.8834692,43.3368303 36.8834692,42.3936459 C36.8834692,41.5001031 37.4791645,40.9044078 38.3230662,40.8547664 C38.7698377,40.8547664 39.1669679,41.0036902 39.5640981,41.301538 L40.0605108,40.4576362 C39.5640981,40.060506 39.0676853,39.911582 38.3727075,39.911582 C36.8338278,39.911582 35.8410023,40.9540489 35.8410023,42.3936459 Z M45.4714101,42.3936459 L45.4714101,40.0108647 L44.4289432,40.0108647 L44.4289432,40.6065602 C44.0814543,40.1597885 43.5850415,39.911582 42.9397048,39.911582 C41.5993905,39.911582 40.5569236,40.9540489 40.5569236,42.3936459 C40.5569236,43.8332429 41.5993905,44.87571 42.9397048,44.87571 C43.6346828,44.87571 44.1310957,44.6275033 44.4289432,44.180732 L44.4289432,44.7764273 L45.4714101,44.7764273 L45.4714101,42.3936459 Z M41.6490318,42.3936459 C41.6490318,41.5497442 42.1950858,40.8547664 43.0886288,40.8547664 C43.9325306,40.8547664 44.5282259,41.5001031 44.5282259,42.3936459 C44.5282259,43.2375476 43.9325306,43.9325256 43.0886288,43.9325256 C42.1950858,43.8828843 41.6490318,43.2375476 41.6490318,42.3936459 Z M29.1890711,39.911582 C27.7991154,39.911582 26.8062899,40.9044078 26.8062899,42.3936459 C26.8062899,43.8828843 27.7991154,44.87571 29.2387125,44.87571 C29.9336904,44.87571 30.6286682,44.6771447 31.1747221,44.2303734 L30.6783095,43.4857541 C30.2811793,43.7836018 29.7847664,43.9821669 29.2883538,43.9821669 C28.6430172,43.9821669 27.9976805,43.6843194 27.8487568,42.8404177 L31.3732872,42.8404177 L31.3732872,42.4432872 C31.4229286,40.9044078 30.5293855,39.911582 29.1890711,39.911582 Z M29.1890711,40.8051251 C29.8344078,40.8051251 30.2811793,41.2022555 30.3804617,41.9468746 L27.8983981,41.9468746 C27.9976805,41.301538 28.4444521,40.8051251 29.1890711,40.8051251 Z M55.0521764,42.3936459 L55.0521764,38.1244964 L54.0097096,38.1244964 L54.0097096,40.6065602 C53.6622207,40.1597885 53.1658079,39.911582 52.5204715,39.911582 C51.1801569,39.911582 50.13769,40.9540489 50.13769,42.3936459 C50.13769,43.8332429 51.1801569,44.87571 52.5204715,44.87571 C53.2154492,44.87571 53.7118621,44.6275033 54.0097096,44.180732 L54.0097096,44.7764273 L55.0521764,44.7764273 L55.0521764,42.3936459 Z M51.2297982,42.3936459 C51.2297982,41.5497442 51.7758522,40.8547664 52.6693952,40.8547664 C53.513297,40.8547664 54.1089923,41.5001031 54.1089923,42.3936459 C54.1089923,43.2375476 53.513297,43.9325256 52.6693952,43.9325256 C51.7758522,43.8828843 51.2297982,43.2375476 51.2297982,42.3936459 Z M16.3816218,42.3936459 L16.3816218,40.0108647 L15.339155,40.0108647 L15.339155,40.6065602 C14.991666,40.1597885 14.4952532,39.911582 13.8499166,39.911582 C12.5096021,39.911582 11.4671353,40.9540489 11.4671353,42.3936459 C11.4671353,43.8332429 12.5096021,44.87571 13.8499166,44.87571 C14.5448945,44.87571 15.0413073,44.6275033 15.339155,44.180732 L15.339155,44.7764273 L16.3816218,44.7764273 L16.3816218,42.3936459 Z M12.5096021,42.3936459 C12.5096021,41.5497442 13.0556562,40.8547664 13.9491992,40.8547664 C14.7931009,40.8547664 15.3887962,41.5001031 15.3887962,42.3936459 C15.3887962,43.2375476 14.7931009,43.9325256 13.9491992,43.9325256 C13.0556562,43.8828843 12.5096021,43.2375476 12.5096021,42.3936459 Z" id="Shape" fill="#000000" fill-rule="nonzero"></path>
            <rect id="Rectangle" fill="#FF5F00" x="21.097548" y="3.82237887" width="15.6370022" height="28.0969618"></rect>
            <path d="M22.0903686,17.8708553 C22.0903686,12.1621084 24.7709976,7.09869819 28.8912236,3.82237392 C25.8631055,1.43959263 22.0407273,-4.40361124e-06 17.8708601,-4.40361124e-06 C7.99224596,-4.40361124e-06 3.90260216e-07,7.99224117 3.90260216e-07,17.8708553 C3.90260216e-07,27.7494693 7.99224596,35.7417149 17.8708601,35.7417149 C22.0407273,35.7417149 25.8631055,34.3021179 28.8912236,31.9193367 C24.7709976,28.6926535 22.0903686,23.5796022 22.0903686,17.8708553 Z" id="Path" fill="#EB001B"></path>
            <path d="M57.8320881,17.8708553 C57.8320881,27.7494693 49.8398425,35.7417149 39.9612283,35.7417149 C35.791361,35.7417149 31.9689825,34.3021179 28.9408649,31.9193367 C33.110732,28.6430124 35.7417197,23.5796022 35.7417197,17.8708553 C35.7417197,12.1621084 33.0610907,7.09869819 28.9408649,3.82237392 C31.9689825,1.43959263 35.791361,-4.40361124e-06 39.9612283,-4.40361124e-06 C49.8398425,-4.40361124e-06 57.8320881,8.04188245 57.8320881,17.8708553 Z" id="Path" fill="#F79E1B"></path>
        </g>
    </g>
</svg>